<svg width="1358" height="567" xmlns="http://www.w3.org/2000/svg" xmlns:xlink="http://www.w3.org/1999/xlink" xml:space="preserve" overflow="hidden"><defs><clipPath id="clip0"><rect x="1440" y="1291" width="1358" height="567"/></clipPath></defs><g clip-path="url(#clip0)" transform="translate(-1440 -1291)"><path d="M1460.5 1574.5 1627.51 1553.99 1473.15 1520.07 1646.39 1513.76 1510.62 1467.73 1683.44 1475.86 1571.48 1419.5 1737.23 1441.75 1653.37 1377.22 1805.69 1412.75 1753.16 1342.52 1886.19 1389.96 1867.01 1316.74 1975.64 1374.26 1990.53 1300.86 2070.59 1366.26 2119 1295.5 2167.41 1366.26 2247.47 1300.86 2262.36 1374.26 2370.99 1316.74 2351.81 1389.96 2484.84 1342.52 2432.31 1412.75 2584.63 1377.22 2500.77 1441.75 2666.52 1419.5 2554.56 1475.86 2727.38 1467.73 2591.61 1513.76 2764.85 1520.07 2610.49 1553.99 2777.5 1574.5 2610.49 1595.01 2764.85 1628.93 2591.61 1635.24 2727.38 1681.27 2554.56 1673.14 2666.52 1729.5 2500.77 1707.25 2584.63 1771.78 2432.31 1736.25 2484.84 1806.48 2351.81 1759.04 2370.99 1832.26 2262.36 1774.74 2247.47 1848.14 2167.41 1782.74 2119 1853.5 2070.59 1782.74 1990.53 1848.14 1975.64 1774.74 1867.01 1832.26 1886.19 1759.04 1753.16 1806.48 1805.69 1736.25 1653.37 1771.78 1737.23 1707.25 1571.48 1729.5 1683.44 1673.14 1510.62 1681.27 1646.39 1635.24 1473.15 1628.93 1627.51 1595.01Z" stroke="#FFFF00" stroke-width="4.58333" stroke-miterlimit="8" fill="#7F7F7F" fill-rule="evenodd"/><text fill="#FFFFFF" font-family="Calibri,Calibri_MSFontService,sans-serif" font-style="italic" font-weight="400" font-size="183" transform="matrix(1 0 0 1 1912.4 1624)">SALE!</text></g></svg>